<svg width="24" height="25" viewBox="0 0 24 25" fill="none" xmlns="http://www.w3.org/2000/svg">
<path d="M2.5 11.3232C2.5 10.099 3.06058 8.9422 4.02142 8.18364L9.52142 3.84154C10.9747 2.69424 13.0253 2.69425 14.4786 3.84154L19.9786 8.18364C20.9394 8.9422 21.5 10.099 21.5 11.3232V17.8848C21.5 20.0939 19.7091 21.8848 17.5 21.8848H16C15.4477 21.8848 15 21.4371 15 20.8848V17.8848C15 16.7802 14.1046 15.8848 13 15.8848H11C9.89543 15.8848 9 16.7802 9 17.8848V20.8848C9 21.4371 8.55228 21.8848 8 21.8848H6.5C4.29086 21.8848 2.5 20.0939 2.5 17.8848L2.5 11.3232Z" stroke="#E68540" stroke-width="1.5"/>
</svg>
