<svg width="21" height="23" viewBox="0 0 21 23" fill="none" xmlns="http://www.w3.org/2000/svg">
<path d="M16.3439 8.91205L18.4692 10.0617L18.9141 10.3117C19.862 10.8443 19.862 12.2173 18.9141 12.7498L12.8775 16.1414C11.4774 16.9279 9.77256 16.9279 8.37254 16.1414L2.33592 12.7498C1.38802 12.2173 1.38803 10.8443 2.33593 10.3117L2.78085 10.0617L4.78834 8.91205M16.8061 14.0309L18.7379 15.0033C19.7342 15.5048 19.7662 16.9245 18.7935 17.471L12.8775 20.7948C11.4774 21.5814 9.77256 21.5814 8.37254 20.7948L2.5428 17.5195C1.5534 16.9636 1.60791 15.5125 2.6362 15.0335L4.78834 14.0309M12.8775 11.1959L18.9141 7.80437C19.862 7.27181 19.862 5.89882 18.9141 5.36626L12.8775 1.9747C11.4774 1.18812 9.77256 1.18812 8.37254 1.97469L2.33593 5.36625C1.38803 5.89882 1.38802 7.27181 2.33592 7.80437L8.37254 11.1959C9.77256 11.9825 11.4774 11.9825 12.8775 11.1959Z" stroke="#D9D9D9" stroke-width="1.5"/>
</svg>
