<svg width="25" height="24" viewBox="0 0 25 24" fill="none" xmlns="http://www.w3.org/2000/svg">
<path d="M16.375 2V4M7.375 22V20C7.375 19.4696 7.58571 18.9609 7.96079 18.5858C8.33586 18.2107 8.84457 18 9.375 18H15.375C15.9054 18 16.4141 18.2107 16.7892 18.5858C17.1643 18.9609 17.375 19.4696 17.375 20V22M8.375 2V4M15.375 11C15.375 12.6569 14.0319 14 12.375 14C10.7181 14 9.375 12.6569 9.375 11C9.375 9.34315 10.7181 8 12.375 8C14.0319 8 15.375 9.34315 15.375 11ZM5.375 4H19.375C20.4796 4 21.375 4.89543 21.375 6V20C21.375 21.1046 20.4796 22 19.375 22H5.375C4.27043 22 3.375 21.1046 3.375 20V6C3.375 4.89543 4.27043 4 5.375 4Z" stroke="white" stroke-width="1.5" stroke-linecap="round" stroke-linejoin="round"/>
</svg>
