<svg width="25" height="25" viewBox="0 0 25 25" fill="none" xmlns="http://www.w3.org/2000/svg">
<path d="M16.2812 2.76953V4.76953M7.28125 22.7695V20.7695C7.28125 20.2391 7.49196 19.7304 7.86704 19.3553C8.24211 18.9802 8.75082 18.7695 9.28125 18.7695H15.2812C15.8117 18.7695 16.3204 18.9802 16.6955 19.3553C17.0705 19.7304 17.2812 20.2391 17.2812 20.7695V22.7695M8.28125 2.76953V4.76953M15.2812 11.7695C15.2812 13.4264 13.9381 14.7695 12.2812 14.7695C10.6244 14.7695 9.28125 13.4264 9.28125 11.7695C9.28125 10.1127 10.6244 8.76953 12.2812 8.76953C13.9381 8.76953 15.2812 10.1127 15.2812 11.7695ZM5.28125 4.76953H19.2812C20.3858 4.76953 21.2812 5.66496 21.2812 6.76953V20.7695C21.2812 21.8741 20.3858 22.7695 19.2812 22.7695H5.28125C4.17668 22.7695 3.28125 21.8741 3.28125 20.7695V6.76953C3.28125 5.66496 4.17668 4.76953 5.28125 4.76953Z" stroke="#D9D9D9" stroke-width="1.5" stroke-linecap="round" stroke-linejoin="round"/>
</svg>
