<svg width="25" height="25" viewBox="0 0 25 25" fill="none" xmlns="http://www.w3.org/2000/svg">
<circle cx="3.40426" cy="3.40426" r="3.40426" transform="matrix(-1 0 0 1 16.3358 5.38477)" stroke="white" stroke-width="1.5"/>
<path d="M6.97412 17.2442C6.97412 16.5119 7.43442 15.8588 8.12399 15.6125V15.6125C11.2329 14.5022 14.6303 14.5022 17.7391 15.6125V15.6125C18.4287 15.8588 18.889 16.5119 18.889 17.2442V18.3637C18.889 19.3743 17.9939 20.1506 16.9935 20.0077L16.66 19.9601C14.1869 19.6068 11.6762 19.6068 9.20317 19.9601L8.86962 20.0077C7.86919 20.1506 6.97412 19.3743 6.97412 18.3637V17.2442Z" stroke="white" stroke-width="1.5"/>
<path d="M18.0379 12.287C19.5151 12.287 20.7126 11.0895 20.7126 9.61227C20.7126 8.13504 19.5151 6.9375 18.0379 6.9375" stroke="white" stroke-width="1.5" stroke-linecap="round"/>
<path d="M20.9673 18.3893L21.2294 18.4268C22.0155 18.5391 22.7187 17.9291 22.7187 17.1351V16.2554C22.7187 15.6801 22.3571 15.1669 21.8153 14.9734C21.2748 14.7804 20.7233 14.6301 20.1655 14.5225" stroke="white" stroke-width="1.5" stroke-linecap="round"/>
<path d="M7.39963 12.287C5.92239 12.287 4.72485 11.0895 4.72485 9.61227C4.72485 8.13504 5.92239 6.9375 7.39963 6.9375" stroke="white" stroke-width="1.5" stroke-linecap="round"/>
<path d="M4.47018 18.3893L4.2081 18.4268C3.42205 18.5391 2.71878 17.9291 2.71878 17.1351V16.2554C2.71878 15.6801 3.08045 15.1669 3.62225 14.9734C4.1627 14.7804 4.71424 14.6301 5.27197 14.5225" stroke="white" stroke-width="1.5" stroke-linecap="round"/>
</svg>
