<svg width="25" height="25" viewBox="0 0 25 25" fill="none" xmlns="http://www.w3.org/2000/svg">
<circle cx="3.40426" cy="3.40426" r="3.40426" transform="matrix(-1 0 0 1 16.2421 5.38477)" stroke="#D9D9D9" stroke-width="1.5"/>
<path d="M6.88037 17.2442C6.88037 16.5119 7.34067 15.8588 8.03024 15.6125V15.6125C11.1391 14.5022 14.5365 14.5022 17.6454 15.6125V15.6125C18.335 15.8588 18.7953 16.5119 18.7953 17.2442V18.3637C18.7953 19.3743 17.9002 20.1506 16.8998 20.0077L16.5662 19.9601C14.0932 19.6068 11.5825 19.6068 9.10942 19.9601L8.77587 20.0077C7.77544 20.1506 6.88037 19.3743 6.88037 18.3637V17.2442Z" stroke="#D9D9D9" stroke-width="1.5"/>
<path d="M17.9441 12.287C19.4214 12.287 20.6189 11.0895 20.6189 9.61227C20.6189 8.13504 19.4214 6.9375 17.9441 6.9375" stroke="#D9D9D9" stroke-width="1.5" stroke-linecap="round"/>
<path d="M20.8736 18.3893L21.1356 18.4268C21.9217 18.5391 22.625 17.9291 22.625 17.1351V16.2554C22.625 15.6801 22.2633 15.1669 21.7215 14.9734C21.1811 14.7804 20.6295 14.6301 20.0718 14.5225" stroke="#D9D9D9" stroke-width="1.5" stroke-linecap="round"/>
<path d="M7.30588 12.287C5.82864 12.287 4.6311 11.0895 4.6311 9.61227C4.6311 8.13504 5.82864 6.9375 7.30588 6.9375" stroke="#D9D9D9" stroke-width="1.5" stroke-linecap="round"/>
<path d="M4.37643 18.3893L4.11435 18.4268C3.3283 18.5391 2.62503 17.9291 2.62503 17.1351V16.2554C2.62503 15.6801 2.9867 15.1669 3.5285 14.9734C4.06895 14.7804 4.62049 14.6301 5.17822 14.5225" stroke="#D9D9D9" stroke-width="1.5" stroke-linecap="round"/>
</svg>
