<svg width="37" height="48" viewBox="0 0 37 48" fill="none" xmlns="http://www.w3.org/2000/svg">
<path fill-rule="evenodd" clip-rule="evenodd" d="M26.4991 47.3324H10.5002C7.84798 47.3324 5.30439 46.2789 3.42899 44.4035C1.55359 42.5281 0.5 39.9845 0.5 37.3322V10.6682C0.5 8.01595 1.55359 5.47236 3.42899 3.59696C5.30439 1.72156 7.84798 0.667969 10.5002 0.667969H19.8518C21.8292 0.668414 23.7393 1.38637 25.2275 2.68854L33.7088 10.1082C34.5854 10.8748 35.2879 11.8199 35.7692 12.8803C36.2505 13.9407 36.4994 15.0917 36.4993 16.2562V37.3322C36.4993 38.6455 36.2406 39.9459 35.7381 41.1592C35.2355 42.3724 34.4989 43.4748 33.5703 44.4035C32.6417 45.3321 31.5393 46.0687 30.326 46.5712C29.1127 47.0738 27.8124 47.3324 26.4991 47.3324ZM26.4991 42.666H10.5002C9.79976 42.666 9.10618 42.528 8.45906 42.26C7.81194 41.9919 7.22395 41.5991 6.72867 41.1038C6.23338 40.6085 5.8405 40.0205 5.57245 39.3734C5.30441 38.7263 5.16645 38.0327 5.16645 37.3322V10.6682C5.16645 9.25357 5.72839 7.89691 6.72867 6.89664C7.72894 5.89636 9.0856 5.33442 10.5002 5.33442H19.8518C20.6989 5.33476 21.5171 5.64231 22.1546 6.20004L30.6359 13.6197C31.012 13.9483 31.3134 14.3536 31.5198 14.8084C31.7263 15.2631 31.833 15.7568 31.8329 16.2562V37.3322C31.8329 38.0327 31.6949 38.7263 31.4269 39.3734C31.1588 40.0205 30.7659 40.6085 30.2706 41.1038C29.7754 41.5991 29.1874 41.9919 28.5403 42.26C27.8931 42.528 27.1996 42.666 26.4991 42.666Z" fill="white"/>
<path fill-rule="evenodd" clip-rule="evenodd" d="M21.4992 3.00146C22.118 3.00146 22.7115 3.24729 23.1491 3.68485C23.5866 4.12241 23.8325 4.71588 23.8325 5.33469V12.3344C23.8325 12.9532 24.0783 13.5466 24.5158 13.9842C24.9534 14.4218 25.5469 14.6676 26.1657 14.6676H31.9987C32.6176 14.6676 33.211 14.9134 33.6486 15.351C34.0862 15.7885 34.332 16.382 34.332 17.0008C34.332 17.6196 34.0862 18.2131 33.6486 18.6506C33.211 19.0882 32.6176 19.334 31.9987 19.334H26.1657C24.3093 19.334 22.5289 18.5966 21.2162 17.2839C19.9035 15.9712 19.166 14.1908 19.166 12.3344V5.33469C19.166 4.71588 19.4118 4.12241 19.8494 3.68485C20.287 3.24729 20.8804 3.00146 21.4992 3.00146Z" fill="white"/>
</svg>
