<svg width="38" height="42" viewBox="0 0 38 42" fill="none" xmlns="http://www.w3.org/2000/svg">
<path d="M36.1 28.7707V19.286C36.1 11.1351 36.1 7.06344 33.5958 4.53077C31.0917 2 27.0599 2 19.0002 2C10.9405 2 6.90874 2 4.40456 4.53077C1.90039 7.06154 1.90039 11.1389 1.90039 19.286V28.7726C1.90039 34.6549 1.90039 37.598 3.29498 38.8824C3.95997 39.4961 4.79976 39.8818 5.69465 39.9844C7.56993 40.1991 9.7606 38.2611 14.1401 34.387C16.078 32.6752 17.0451 31.8183 18.1642 31.5941C18.7152 31.4801 19.2852 31.4801 19.8362 31.5941C20.9572 31.8183 21.9243 32.6752 23.8603 34.387C28.2398 38.2611 30.4305 40.1991 32.3058 39.9825C33.1987 39.8818 34.0404 39.4961 34.7054 38.8824C36.1 37.598 36.1 34.6549 36.1 28.7707Z" stroke="#FBFBFB" stroke-width="3"/>
<path d="M24.6997 9.6001H13.2998" stroke="#FBFBFB" stroke-width="3" stroke-linecap="round"/>
</svg>
