<svg width="46" height="42" viewBox="0 0 46 42" fill="none" xmlns="http://www.w3.org/2000/svg">
<path d="M31.3337 39.75V35.5833C31.3337 33.3732 30.4557 31.2536 28.8929 29.6908C27.3301 28.128 25.2105 27.25 23.0003 27.25H10.5003C8.29019 27.25 6.17057 28.128 4.60777 29.6908C3.04497 31.2536 2.16699 33.3732 2.16699 35.5833V39.75M43.8337 39.75V35.5833C43.8323 33.7369 43.2177 31.9433 42.0865 30.484C40.9553 29.0247 39.3714 27.9824 37.5837 27.5208M31.3337 2.52083C33.1262 2.97979 34.715 4.02229 35.8496 5.48398C36.9842 6.94567 37.6 8.7434 37.6 10.5937C37.6 12.4441 36.9842 14.2418 35.8496 15.7035C34.715 17.1652 33.1262 18.2077 31.3337 18.6667M25.0837 10.5833C25.0837 15.1857 21.3527 18.9167 16.7503 18.9167C12.148 18.9167 8.41699 15.1857 8.41699 10.5833C8.41699 5.98096 12.148 2.25 16.7503 2.25C21.3527 2.25 25.0837 5.98096 25.0837 10.5833Z" stroke="white" stroke-width="4" stroke-linecap="round" stroke-linejoin="round"/>
</svg>
