<svg width="25" height="25" viewBox="0 0 25 25" fill="none" xmlns="http://www.w3.org/2000/svg">
<path d="M10.5801 8.38477L8.92006 15.5288C8.56006 17.0788 8.38106 17.8528 8.58706 18.5808L8.59906 18.6238C8.81506 19.3488 9.38106 19.9018 10.5111 21.0088C11.4441 21.9218 11.9111 22.3788 12.4841 22.3848H12.5161C13.0901 22.3778 13.5561 21.9218 14.4891 21.0088C15.6191 19.9018 16.1851 19.3488 16.4011 18.6238L16.4131 18.5808C16.6191 17.8528 16.4391 17.0778 16.0791 15.5288L14.4211 8.38477M9.22106 5.99477C8.66206 5.00477 8.38306 4.50877 8.54706 4.05877C8.71106 3.60877 9.23906 3.42077 10.2951 3.04677L11.1951 2.72777C11.8411 2.49877 12.1651 2.38477 12.5001 2.38477C12.8351 2.38477 13.1591 2.49877 13.8051 2.72777L14.7051 3.04777C15.7611 3.42077 16.2891 3.60777 16.4531 4.05777C16.6181 4.50777 16.3381 5.00377 15.7791 5.99377L15.2631 6.90877C14.9981 7.37777 14.8661 7.61177 14.6331 7.79577C14.4031 7.97977 14.1881 8.04077 13.7581 8.16377C13.3471 8.28177 12.8781 8.38477 12.5001 8.38477C12.1221 8.38477 11.6531 8.28177 11.2421 8.16377C10.8121 8.04077 10.5981 7.97977 10.3661 7.79577C10.1341 7.61177 10.0021 7.37777 9.73706 6.90877L9.22106 5.99477Z" stroke="#D9D9D9" stroke-width="1.5" stroke-linecap="round" stroke-linejoin="round"/>
</svg>
