<svg width="25" height="25" viewBox="0 0 25 25" fill="none" xmlns="http://www.w3.org/2000/svg">
<path d="M5.5 3.88477H19.5V19.8504C19.5 20.6807 18.5466 21.1493 17.8892 20.6421L16.5584 19.6155C16.2236 19.3572 15.7625 19.3374 15.4068 19.5661L13.5815 20.7395C12.9227 21.163 12.0773 21.163 11.4185 20.7395L9.5932 19.5661C9.23751 19.3374 8.77644 19.3572 8.44164 19.6155L7.1108 20.6421C6.45338 21.1493 5.5 20.6807 5.5 19.8504V3.88477Z" stroke="#D9D9D9" stroke-width="1.5"/>
<path d="M9.5 9.88477H12.5" stroke="#D9D9D9" stroke-width="1.5" stroke-linecap="round" stroke-linejoin="round"/>
<path d="M3.5 3.88477H21.5" stroke="#D9D9D9" stroke-width="1.5" stroke-linecap="round" stroke-linejoin="round"/>
<path d="M9.5 13.8848H12.5" stroke="#D9D9D9" stroke-width="1.5" stroke-linecap="round" stroke-linejoin="round"/>
<path d="M15.5 9.88477H16" stroke="#D9D9D9" stroke-width="1.5" stroke-linecap="round" stroke-linejoin="round"/>
<path d="M15.5 13.8848H16" stroke="#D9D9D9" stroke-width="1.5" stroke-linecap="round" stroke-linejoin="round"/>
</svg>
